<svg xmlns="http://www.w3.org/2000/svg" viewBox="0 0 544 476"><defs><style>.cls-1{fill:#fff;}</style></defs><title>logoJSR</title><g id="Layer_9" data-name="Layer 9"><rect width="544" height="476" rx="50" ry="50"/></g><g id="Layer_2" data-name="Layer 2"><path class="cls-1" d="M1244.3,676.4c-13.2,22.5-64.8,2.7-76.7-10.5-27.8-25.2-40.7-58.7-54.2-115.1l-.3-.6,25.4-6c62.3-20.4,76.7-91.3,48.9-122.6-16.6-18.8-40.4-29.6-65.5-30.7l-27-1.1c-7.4.4-8.2-9.4,0-9.6h56.8V363h-197v17.2h75.4c7.7-.9,6.6,10.8,0,11.5l-26.4,6.5a116.2,116.2,0,0,0-61,36.9c-35.4,41.3-26.4,87.9,35.8,150.1l26.4,32-1.3,10.3c-13,44.4-42,64.5-82,67.4-30.9-2.2-51.5-21.4-64.8-55.5-15.9-26.4-43.6-2.6-30.4,26.5,13.8,38.9,38.5,62.7,87.3,66.1,64.9,1.7,111.1-30.4,137.5-71.4,10.6-14.6,21.1-35.1,29.1-63.5,22.7,70.9,59.4,110.3,97.7,123.7,28.8,11.1,71.2,20.9,96.7-18.5C1295.6,667.3,1258.9,651.3,1244.3,676.4ZM1106.8,415.9c72.8-2.1,74.5,96.5.8,96.2h-12.7V415.9ZM986.4,529.6l-1.6-1.9c-30.5-37-10.4-93.2,36.3-103.7l9-2V567.8h-.1C1014.1,559,999.6,546,986.4,529.6Z" transform="translate(-780 -310)"/></g></svg>